<?xml version="1.0" encoding="iso-8859-1"?>
<!-- Generator: Adobe Illustrator 19.0.0, SVG Export Plug-In . SVG Version: 6.00 Build 0)  -->
<svg version="1.1" id="Capa_1" xmlns="http://www.w3.org/2000/svg" xmlns:xlink="http://www.w3.org/1999/xlink" x="0px" y="0px"
	 viewBox="0 0 512.578 512.578" style="enable-background:new 0 0 512.578 512.578;" xml:space="preserve">
<g>
	<g>
		<g>
			<path d="M336.627,136.578h-32c-0.221-0.005-0.442-0.005-0.663,0c-8.653,0.183-15.52,7.346-15.337,16v24h16v-24h32v40h-32
				c-0.221-0.005-0.442-0.005-0.663,0c-8.653,0.183-15.52,7.346-15.337,16v24c-0.005,0.221-0.005,0.442,0,0.663
				c0.183,8.653,7.347,15.52,16,15.337h48v-16h-48v-24h32c0.221,0.005,0.442,0.005,0.663,0c8.654-0.183,15.52-7.347,15.337-16v-40
				c0.005-0.221,0.005-0.442,0-0.663C352.444,143.262,345.281,136.395,336.627,136.578z"/>
			<path d="M424.627,136.578h-16v56h-16v-56h-16v64c0,4.418,3.582,8,8,8h24v40h16v-40h16v-16h-16V136.578z"/>
			<path d="M476.773,159.118C436.315,37.362,304.814-28.543,183.057,11.916C61.301,52.374-4.604,183.876,35.855,305.632
				c18.21,54.8,54.867,98.277,100.772,125.843v1.103h1.856c55.771,32.794,124.868,42.26,191.088,20.256l57.4,57.4
				c1.5,1.5,3.534,2.343,5.656,2.344c1.052,0.003,2.093-0.203,3.064-0.608c2.989-1.239,4.937-4.157,4.936-7.392v-90.152
				C477.135,353.778,507.56,251.767,476.773,159.118z M112.627,393.212V290.466l5.84-11.712l48.17-20.854l25.99,25.99v28.688h16
				V283.89l25.987-25.987l48.165,20.851l5.848,11.712v155.751c-7.993,1.197-16.005,1.935-24,2.225v-87.864h-16v87.852
				c-33.655-1.287-66.566-10.463-96-26.718v-61.134h-16v51.362C128.247,406.307,120.222,400.06,112.627,393.212z M240.627,151.423
				c-4-1.052-8-3.053-8-6.845c0-4.418-3.582-8-8-8h-48c-4.418,0-8,3.582-8,8c0,3.792-4,5.792-8,6.845v-35.117
				c11.729-8.102,25.753-12.214,40-11.728c14.247-0.486,28.271,3.626,40,11.728V151.423z M160.627,167.826
				c9.619-0.916,18.113-6.661,22.544-15.248h34.912c4.431,8.587,12.925,14.332,22.544,15.248v8.752c0,22.144-10.48,48-40,48
				s-40-25.856-40-48V167.826z M200.627,240.578c7.042,0,13.626-1.21,19.634-3.466l3.055,9.466l-22.688,22.688l-22.695-22.695
				l3.05-9.463C186.993,239.367,193.581,240.578,200.627,240.578z M387.771,404.17c-1.98,1.512-3.142,3.861-3.144,6.352v74.744
				l-47.272-47.272c-1.5-1.5-3.534-2.344-5.656-2.344c-0.913-0.003-1.82,0.151-2.68,0.456c-8.059,2.869-16.203,5.227-24.392,7.096
				V288.578c0.014-1.238-0.26-2.462-0.8-3.576l-8-16c-0.852-1.685-2.267-3.018-4-3.768l-53.12-22.976l-4.274-13.254
				c13.838-11.186,22.194-29.741,22.194-52.426v-16v-48c0-2.122-0.844-4.156-2.344-5.656
				c-14.943-12.642-34.101-19.192-53.656-18.344c-19.555-0.848-38.712,5.702-53.656,18.344c-1.5,1.5-2.344,3.534-2.344,5.656v48v16
				c0,22.678,8.351,41.229,22.182,52.416l-4.278,13.264l-53.064,22.976c-1.733,0.75-3.148,2.083-4,3.768l-8,16
				c-0.554,1.111-0.841,2.335-0.84,3.576v88.602c-3.735-4.159-7.333-8.483-10.776-12.977
				c-72.336-94.41-54.442-229.584,39.968-301.92s229.584-54.442,301.92,39.967S482.181,331.834,387.771,404.17z"/>
		</g>
	</g>
</g>
<g>
</g>
<g>
</g>
<g>
</g>
<g>
</g>
<g>
</g>
<g>
</g>
<g>
</g>
<g>
</g>
<g>
</g>
<g>
</g>
<g>
</g>
<g>
</g>
<g>
</g>
<g>
</g>
<g>
</g>
</svg>
