<?xml version="1.0" encoding="iso-8859-1"?>
<!-- Generator: Adobe Illustrator 19.0.0, SVG Export Plug-In . SVG Version: 6.00 Build 0)  -->
<svg version="1.1" id="Capa_1" xmlns="http://www.w3.org/2000/svg" xmlns:xlink="http://www.w3.org/1999/xlink" x="0px" y="0px"
	 viewBox="0 0 512 512" style="enable-background:new 0 0 512 512;" xml:space="preserve">
<g>
	<g>
		<g>
			<path d="M463.2,388.424c-0.852-1.685-2.267-3.018-4-3.768l-53.12-22.976l-4.274-13.254C415.644,337.24,424,318.684,424,296v-8h24
				v-16h-24v-40c0-2.122-0.844-4.156-2.344-5.656C406.713,213.702,387.555,207.152,368,208
				c-19.555-0.848-38.712,5.702-53.656,18.344c-1.5,1.5-2.344,3.534-2.344,5.656v48v16c0,22.66,8.338,41.201,22.15,52.39
				l-4.286,13.29L276.8,384.656c-1.733,0.75-3.148,2.083-4,3.768l-8,16c-0.54,1.114-0.814,2.338-0.8,3.576v104h16V409.888
				l5.84-11.712l48.17-20.854l25.99,25.99V432h16v-28.688l25.987-25.987l48.165,20.851L456,409.888V512h16V408
				c0.014-1.238-0.26-2.462-0.8-3.576L463.2,388.424z M328,235.728c11.731-8.097,25.754-12.208,40-11.728
				c14.245-0.483,28.268,3.625,40,11.72V272h-80V235.728z M328,296v-8h80v8c0,22.144-10.48,48-40,48C338.48,344,328,318.144,328,296
				z M368,360c7.042,0,13.626-1.21,19.634-3.466l3.055,9.466L368,388.688l-22.701-22.701l3.035-9.465
				C354.351,358.786,360.946,360,368,360z"/>
			<rect x="304" y="480" width="16" height="32"/>
			<rect x="416" y="480" width="16" height="32"/>
			<path d="M496,0H16C7.163,0,0,7.163,0,16v400c0,8.837,7.163,16,16,16h224v-16H16V64h136V48H16V16h160v152
				c-0.006,2.659,1.31,5.148,3.512,6.64l24,16c2.69,1.797,6.198,1.797,8.888,0l19.544-13.04l19.56,13.056
				c1.313,0.875,2.854,1.343,4.432,1.344c1.582-0.004,3.127-0.478,4.44-1.36l19.56-13.04l19.6,13.064
				c2.685,1.786,6.179,1.786,8.864,0l24.04-16c2.227-1.486,3.563-3.987,3.56-6.664V16h160v32H360v16h136v368c8.837,0,16-7.163,16-16
				V16C512,7.163,504.837,0,496,0z M304,174.4l-19.6-13.04c-2.685-1.786-6.179-1.786-8.864,0l-19.56,13.04l-19.552-13.04
				c-2.688-1.794-6.192-1.794-8.88,0L208,174.4l-16-10.68V56h128v107.72L304,174.4z M320,40H192V16h128V40z"/>
			<path d="M56,304c-4.418,0-8,3.582-8,8v64c0,4.418,3.582,8,8,8h64c4.418,0,8-3.582,8-8v-64c0-4.418-3.582-8-8-8H56z M100.722,320
				L64,356.722V320H100.722z M75.349,368L112,331.349V368H75.349z"/>
			<rect x="144" y="320" width="16" height="16"/>
			<rect x="176" y="320" width="16" height="16"/>
			<rect x="144" y="352" width="96" height="16"/>
			<rect x="344" y="240" width="48" height="16"/>
		</g>
	</g>
</g>
<g>
</g>
<g>
</g>
<g>
</g>
<g>
</g>
<g>
</g>
<g>
</g>
<g>
</g>
<g>
</g>
<g>
</g>
<g>
</g>
<g>
</g>
<g>
</g>
<g>
</g>
<g>
</g>
<g>
</g>
</svg>
